<mxfile host="app.diagrams.net" agent="Mozilla/5.0 (Windows NT 10.0; Win64; x64) AppleWebKit/537.36 (KHTML, like Gecko) Chrome/132.0.0.0 Safari/537.36 Edg/132.0.0.0" version="26.0.7">
  <diagram id="RU_Ic61VFjjMj9rcL3MH" name="Page-1">
    <mxGraphModel dx="579" dy="514" grid="1" gridSize="10" guides="1" tooltips="1" connect="1" arrows="1" fold="1" page="1" pageScale="1" pageWidth="850" pageHeight="1100" math="0" shadow="0">
      <root>
        <mxCell id="0" />
        <mxCell id="1" parent="0" />
        <mxCell id="0z87WQkEpv7xF07a0W3W-9" value="" style="endArrow=none;dashed=1;html=1;dashPattern=1 3;strokeWidth=2;rounded=0;" edge="1" parent="1">
          <mxGeometry width="50" height="50" relative="1" as="geometry">
            <mxPoint x="250" y="400" as="sourcePoint" />
            <mxPoint x="250" y="40" as="targetPoint" />
          </mxGeometry>
        </mxCell>
        <mxCell id="0z87WQkEpv7xF07a0W3W-1" value="Task stored in&amp;nbsp;&lt;div&gt;binary Sleep Heap&lt;/div&gt;" style="triangle;whiteSpace=wrap;html=1;rotation=-90;align=left;" vertex="1" parent="1">
          <mxGeometry x="290" y="170" width="150" height="80" as="geometry" />
        </mxCell>
        <mxCell id="0z87WQkEpv7xF07a0W3W-2" value="Task runs" style="ellipse;whiteSpace=wrap;html=1;aspect=fixed;" vertex="1" parent="1">
          <mxGeometry x="70" y="150" width="140" height="140" as="geometry" />
        </mxCell>
        <mxCell id="0z87WQkEpv7xF07a0W3W-6" style="edgeStyle=orthogonalEdgeStyle;rounded=0;orthogonalLoop=1;jettySize=auto;html=1;exitX=0.07;exitY=0.4;exitDx=0;exitDy=0;exitPerimeter=0;entryX=0.5;entryY=0;entryDx=0;entryDy=0;curved=1;" edge="1" parent="1" source="0z87WQkEpv7xF07a0W3W-3" target="0z87WQkEpv7xF07a0W3W-2">
          <mxGeometry relative="1" as="geometry">
            <Array as="points">
              <mxPoint x="238" y="120" />
              <mxPoint x="110" y="120" />
            </Array>
          </mxGeometry>
        </mxCell>
        <mxCell id="0z87WQkEpv7xF07a0W3W-3" value="_OS_schedule()&amp;nbsp;&lt;div&gt;restores task&lt;/div&gt;" style="ellipse;shape=cloud;whiteSpace=wrap;html=1;" vertex="1" parent="1">
          <mxGeometry x="180" y="90" width="140" height="80" as="geometry" />
        </mxCell>
        <mxCell id="0z87WQkEpv7xF07a0W3W-8" style="edgeStyle=orthogonalEdgeStyle;rounded=0;orthogonalLoop=1;jettySize=auto;html=1;exitX=0.96;exitY=0.7;exitDx=0;exitDy=0;exitPerimeter=0;entryX=0;entryY=0.5;entryDx=0;entryDy=0;curved=1;" edge="1" parent="1" source="0z87WQkEpv7xF07a0W3W-4" target="0z87WQkEpv7xF07a0W3W-1">
          <mxGeometry relative="1" as="geometry">
            <Array as="points">
              <mxPoint x="365" y="346" />
            </Array>
          </mxGeometry>
        </mxCell>
        <mxCell id="0z87WQkEpv7xF07a0W3W-4" value="OS_sleepHeap()&amp;nbsp;&lt;div&gt;SuperVisor Call&lt;/div&gt;" style="ellipse;shape=cloud;whiteSpace=wrap;html=1;" vertex="1" parent="1">
          <mxGeometry x="180" y="290" width="150" height="80" as="geometry" />
        </mxCell>
        <mxCell id="0z87WQkEpv7xF07a0W3W-5" style="edgeStyle=orthogonalEdgeStyle;rounded=0;orthogonalLoop=1;jettySize=auto;html=1;exitX=1;exitY=0.5;exitDx=0;exitDy=0;curved=1;entryX=0.925;entryY=0.351;entryDx=0;entryDy=0;entryPerimeter=0;" edge="1" parent="1" source="0z87WQkEpv7xF07a0W3W-1" target="0z87WQkEpv7xF07a0W3W-3">
          <mxGeometry relative="1" as="geometry">
            <mxPoint x="350" y="90" as="targetPoint" />
            <Array as="points">
              <mxPoint x="365" y="118" />
            </Array>
          </mxGeometry>
        </mxCell>
        <mxCell id="0z87WQkEpv7xF07a0W3W-7" style="edgeStyle=orthogonalEdgeStyle;rounded=0;orthogonalLoop=1;jettySize=auto;html=1;exitX=0.5;exitY=1;exitDx=0;exitDy=0;entryX=0.07;entryY=0.4;entryDx=0;entryDy=0;entryPerimeter=0;curved=1;" edge="1" parent="1" source="0z87WQkEpv7xF07a0W3W-2" target="0z87WQkEpv7xF07a0W3W-4">
          <mxGeometry relative="1" as="geometry">
            <Array as="points">
              <mxPoint x="140" y="322" />
            </Array>
          </mxGeometry>
        </mxCell>
        <mxCell id="0z87WQkEpv7xF07a0W3W-10" value="Thread Mode" style="text;html=1;align=center;verticalAlign=middle;whiteSpace=wrap;rounded=0;fontStyle=1;fontSize=18;" vertex="1" parent="1">
          <mxGeometry x="70" y="60" width="150" height="30" as="geometry" />
        </mxCell>
        <mxCell id="0z87WQkEpv7xF07a0W3W-11" value="Handler Mode" style="text;html=1;align=center;verticalAlign=middle;whiteSpace=wrap;rounded=0;fontStyle=1;fontSize=18;" vertex="1" parent="1">
          <mxGeometry x="270" y="60" width="135" height="30" as="geometry" />
        </mxCell>
        <mxCell id="0z87WQkEpv7xF07a0W3W-12" value="Heap access" style="text;html=1;align=center;verticalAlign=middle;whiteSpace=wrap;rounded=0;" vertex="1" parent="1">
          <mxGeometry x="290" y="90" width="110" height="30" as="geometry" />
        </mxCell>
        <mxCell id="0z87WQkEpv7xF07a0W3W-13" value="Heap access" style="text;html=1;align=center;verticalAlign=middle;whiteSpace=wrap;rounded=0;" vertex="1" parent="1">
          <mxGeometry x="320" y="340" width="110" height="30" as="geometry" />
        </mxCell>
      </root>
    </mxGraphModel>
  </diagram>
</mxfile>
